<svg width="42" height="42" viewBox="0 0 42 42" fill="none" xmlns="http://www.w3.org/2000/svg">
<mask id="path-1-outside-1_701_19" maskUnits="userSpaceOnUse" x="-0.189392" y="0.5" width="43" height="41" fill="black">
<rect fill="white" x="-0.189392" y="0.5" width="43" height="41"/>
<path d="M4.81061 37.4103C4.81056 38.8412 37.8108 22.6967 37.8108 21.2297C37.8108 19.7628 4.81061 4.5 4.81061 4.5L11.7525 21.2297C11.7525 21.2297 4.81065 35.9794 4.81061 37.4103Z"/>
</mask>
<path d="M4.81061 37.4103C4.81056 38.8412 37.8108 22.6967 37.8108 21.2297C37.8108 19.7628 4.81061 4.5 4.81061 4.5L11.7525 21.2297C11.7525 21.2297 4.81065 35.9794 4.81061 37.4103Z" fill="#3B9FE7"/>
<path d="M4.81061 37.4103L0.810608 37.4102L4.81061 37.4103ZM11.7525 21.2297L15.3717 22.9331L16.1255 21.3315L15.4471 19.6967L11.7525 21.2297ZM4.81061 4.5L6.48973 0.869499C4.99411 0.177766 3.22734 0.474005 2.03914 1.61574C0.850938 2.75747 0.484495 4.51103 1.11605 6.03305L4.81061 4.5ZM33.8108 21.2297C33.8108 20.3541 34.1032 19.7182 34.2516 19.4378C34.4166 19.126 34.5859 18.9157 34.6672 18.82C34.828 18.6306 34.943 18.5437 34.9017 18.5776C34.8408 18.6276 34.6403 18.7767 34.2325 19.0384C33.4462 19.5429 32.2517 20.2365 30.7304 21.0712C27.7096 22.7286 23.644 24.8099 19.5513 26.8144C15.4573 28.8195 11.3949 30.7191 8.38181 32.0195C6.85778 32.6773 5.68642 33.145 4.93878 33.3997C4.52472 33.5407 4.42859 33.5507 4.52806 33.5342C4.57022 33.5272 4.67504 33.5113 4.82361 33.5039C4.95327 33.4975 5.24584 33.4902 5.62204 33.5587C5.95598 33.6195 6.72746 33.8049 7.47075 34.4563C8.36391 35.2389 8.81064 36.3377 8.81061 37.4104L0.810608 37.4102C0.810573 38.5276 1.27342 39.6625 2.19829 40.473C2.97331 41.1522 3.79212 41.357 4.1885 41.4292C4.95905 41.5696 5.6175 41.4627 5.83436 41.4268C6.41722 41.3304 7.03008 41.1387 7.51836 40.9724C8.57542 40.6123 9.98219 40.0421 11.5519 39.3646C14.7263 37.9945 18.914 36.0345 23.0701 33.999C27.2274 31.9628 31.4119 29.8224 34.5786 28.0848C36.1511 27.2221 37.5347 26.4248 38.5531 25.7713C39.0477 25.4539 39.5562 25.1071 39.9787 24.7602C40.179 24.5957 40.4793 24.3349 40.765 23.9985C40.9087 23.8293 41.1254 23.5521 41.3221 23.1805C41.5023 22.8401 41.8108 22.1512 41.8108 21.2297H33.8108ZM8.81061 37.4104C8.81059 37.9041 8.70099 38.2165 8.74791 38.0442C8.76342 37.9873 8.80356 37.8556 8.88274 37.6302C9.03882 37.186 9.27988 36.566 9.59519 35.7986C10.2215 34.2743 11.0685 32.3425 11.9308 30.4215C12.7899 28.5076 13.6506 26.6345 14.2975 25.2378C14.6206 24.54 14.8898 23.9626 15.078 23.56C15.172 23.3588 15.2458 23.2014 15.2959 23.0946C15.3209 23.0412 15.3401 23.0005 15.3529 22.9732C15.3592 22.9596 15.364 22.9494 15.3672 22.9427C15.3688 22.9393 15.37 22.9368 15.3707 22.9352C15.3711 22.9344 15.3714 22.9338 15.3715 22.9335C15.3716 22.9333 15.3717 22.9332 15.3717 22.9331C15.3717 22.9331 15.3717 22.9331 11.7525 21.2297C8.13335 19.5264 8.13329 19.5265 8.13321 19.5267C8.13315 19.5268 8.13304 19.527 8.13291 19.5273C8.13266 19.5278 8.1323 19.5286 8.13184 19.5296C8.13091 19.5315 8.12957 19.5344 8.12782 19.5381C8.12431 19.5456 8.11916 19.5565 8.11241 19.5709C8.09893 19.5996 8.07907 19.6419 8.05328 19.6968C8.00169 19.8068 7.92632 19.9677 7.83056 20.1725C7.63907 20.5822 7.36591 21.1682 7.03828 21.8756C6.38357 23.2892 5.50876 25.193 4.63237 27.1454C3.75919 29.0907 2.87077 31.1146 2.19542 32.7583C1.85992 33.5749 1.55863 34.342 1.33507 34.9783C1.22443 35.2932 1.11543 35.625 1.02924 35.9414C0.974472 36.1424 0.810629 36.7376 0.810608 37.4102L8.81061 37.4104ZM15.4471 19.6967L8.50517 2.96695L1.11605 6.03305L8.05799 22.7628L15.4471 19.6967ZM4.81061 4.5C3.13148 8.1305 3.13154 8.13053 3.13173 8.13061C3.13196 8.13072 3.13227 8.13087 3.13273 8.13108C3.13364 8.1315 3.13506 8.13216 3.13697 8.13304C3.14079 8.13481 3.14659 8.13749 3.15435 8.14108C3.16985 8.14826 3.19315 8.15905 3.224 8.17334C3.28571 8.20192 3.3776 8.24451 3.49766 8.30022C3.73779 8.41163 4.0906 8.57552 4.53998 8.78479C5.43879 9.20335 6.72362 9.8033 8.2657 10.5279C11.3512 11.9779 15.4605 13.9242 19.5659 15.9142C23.6806 17.9087 27.7542 19.9292 30.7836 21.5323C32.3094 22.3398 33.5037 23.0064 34.2897 23.4922C34.6979 23.7445 34.8939 23.8857 34.9492 23.9298C34.9882 23.9608 34.8653 23.8704 34.696 23.6754C34.6102 23.5766 34.4338 23.3619 34.2626 23.0429C34.1064 22.752 33.8108 22.1108 33.8108 21.2297H41.8108C41.8108 20.3028 41.499 19.609 41.3111 19.259C41.1082 18.8809 40.8845 18.6006 40.7363 18.4299C40.442 18.0911 40.1339 17.8317 39.9311 17.6704C39.5031 17.3297 38.99 16.9926 38.4959 16.6872C37.4772 16.0575 36.0934 15.2911 34.5254 14.4613C31.3673 12.7901 27.1908 10.7199 23.0555 8.71533C18.9108 6.70628 14.7701 4.7452 11.6681 3.28751C10.1164 2.55835 8.82307 1.95444 7.91719 1.53259C7.46422 1.32165 7.10804 1.15619 6.86477 1.04332C6.74313 0.986879 6.64972 0.943584 6.58654 0.91432C6.55496 0.899687 6.53093 0.888562 6.51471 0.881055C6.5066 0.877302 6.50044 0.874453 6.49627 0.872522C6.49418 0.871557 6.49259 0.870821 6.4915 0.870317C6.49096 0.870065 6.49051 0.86986 6.49024 0.869734C6.48993 0.869588 6.48973 0.869499 4.81061 4.5Z" fill="#3B9FE7" mask="url(#path-1-outside-1_701_19)"/>
<mask id="path-3-outside-2_701_19" maskUnits="userSpaceOnUse" x="4.4812" y="17.8088" width="25" height="7" fill="black">
<rect fill="white" x="4.4812" y="17.8088" width="25" height="7"/>
<path d="M5.4812 23.1793C5.48117 23.3693 27.8106 21.2253 27.8106 21.0305C27.8106 20.8357 5.4812 18.8088 5.4812 18.8088V21.0305V23.1793Z"/>
</mask>
<path d="M5.4812 23.1793C5.48117 23.3693 27.8106 21.2253 27.8106 21.0305C27.8106 20.8357 5.4812 18.8088 5.4812 18.8088V21.0305V23.1793Z" fill="white"/>
<path d="M5.4812 23.1793L6.4812 23.1794V23.1793H5.4812ZM5.4812 18.8088L5.5716 17.8129C5.29181 17.7875 5.01425 17.881 4.80681 18.0705C4.59938 18.2599 4.4812 18.5279 4.4812 18.8088H5.4812ZM26.8106 21.0305C26.8106 20.72 26.9507 20.5022 27.0392 20.3953C27.1274 20.2888 27.2174 20.2257 27.2616 20.197C27.3511 20.1388 27.428 20.1104 27.4468 20.1034C27.4767 20.0923 27.4988 20.086 27.5068 20.0838C27.512 20.0824 27.5158 20.0814 27.5179 20.0809C27.5201 20.0803 27.5214 20.08 27.5214 20.08C27.5214 20.08 27.5207 20.0802 27.519 20.0805C27.5174 20.0809 27.515 20.0814 27.512 20.082C27.5057 20.0833 27.4974 20.0849 27.4866 20.0869C27.4648 20.0909 27.4364 20.0958 27.4007 20.1016C27.2548 20.1251 27.0288 20.1563 26.7262 20.1944C26.1247 20.2701 25.2596 20.3684 24.2146 20.4809C22.1264 20.7058 19.3393 20.9857 16.5502 21.2538C13.7612 21.5219 10.974 21.7778 8.88576 21.9546C7.84066 22.0432 6.97549 22.1115 6.37395 22.1517C6.07129 22.1719 5.84532 22.1844 5.6995 22.1891C5.66388 22.1903 5.63566 22.1909 5.61408 22.1911C5.6034 22.1912 5.59521 22.1912 5.58923 22.1911C5.5831 22.1911 5.58056 22.191 5.58098 22.191C5.58128 22.191 5.58285 22.1911 5.5855 22.1912C5.58811 22.1914 5.59248 22.1916 5.59833 22.1921C5.60733 22.1928 5.63257 22.195 5.66688 22.2009C5.68632 22.2043 5.77955 22.2198 5.89134 22.2694C5.9459 22.2937 6.06602 22.3523 6.18546 22.4704C6.31685 22.6004 6.48125 22.8413 6.4812 23.1794L4.4812 23.1791C4.48115 23.5187 4.64623 23.761 4.77899 23.8923C4.89978 24.0118 5.02193 24.0717 5.07919 24.0971C5.19639 24.1492 5.29772 24.1668 5.32789 24.172C5.40712 24.1856 5.47779 24.1886 5.50953 24.1897C5.58711 24.1925 5.67757 24.1909 5.76443 24.188C5.9457 24.1822 6.19946 24.1678 6.50736 24.1472C7.12697 24.1058 8.00627 24.0363 9.05456 23.9475C11.153 23.7697 13.9483 23.5131 16.7416 23.2446C19.5349 22.9761 22.3301 22.6954 24.4287 22.4694C25.477 22.3565 26.3564 22.2568 26.9761 22.1787C27.2841 22.1399 27.5378 22.1053 27.7189 22.0761C27.806 22.0621 27.8956 22.0463 27.9717 22.0287C28.0039 22.0212 28.07 22.0054 28.1421 21.9787C28.1716 21.9677 28.2566 21.9356 28.3515 21.8739C28.3984 21.8434 28.4904 21.7786 28.58 21.6704C28.6698 21.5619 28.8106 21.3425 28.8106 21.0305H26.8106ZM6.4812 23.1793V21.0305H4.4812V23.1793H6.4812ZM6.4812 21.0305V18.8088H4.4812V21.0305H6.4812ZM5.4812 18.8088C5.3908 19.8047 5.39088 19.8048 5.39105 19.8048C5.39122 19.8048 5.39147 19.8048 5.3918 19.8048C5.39248 19.8049 5.39349 19.805 5.39484 19.8051C5.39753 19.8054 5.40156 19.8057 5.40692 19.8062C5.41763 19.8072 5.43362 19.8086 5.45472 19.8106C5.49692 19.8144 5.55956 19.8201 5.64128 19.8275C5.80473 19.8424 6.04449 19.8643 6.34965 19.8922C6.95999 19.9479 7.83196 20.0279 8.87834 20.1244C10.9712 20.3174 13.7613 20.5767 16.5512 20.8421C19.3417 21.1076 22.1294 21.3789 24.2183 21.5958C25.2637 21.7044 26.129 21.7988 26.7307 21.8718C27.0334 21.9086 27.2595 21.9387 27.4055 21.9615C27.4412 21.967 27.4696 21.9718 27.4914 21.9757C27.5022 21.9776 27.5105 21.9792 27.5167 21.9805C27.5198 21.9811 27.5221 21.9815 27.5238 21.9819C27.5254 21.9822 27.5262 21.9824 27.5261 21.9824C27.5261 21.9824 27.5249 21.9821 27.5226 21.9816C27.5204 21.981 27.5166 21.9801 27.5114 21.9787C27.5034 21.9765 27.4811 21.9702 27.4511 21.9593C27.4322 21.9524 27.3548 21.9242 27.2647 21.8661C27.2202 21.8374 27.1294 21.7743 27.0406 21.6673C26.9511 21.5597 26.8106 21.3415 26.8106 21.0305H28.8106C28.8106 20.718 28.6694 20.4982 28.5786 20.3889C28.4884 20.2804 28.3956 20.2156 28.3484 20.1852C28.2529 20.1235 28.1674 20.0917 28.1378 20.0808C28.0654 20.0544 27.9992 20.0389 27.967 20.0316C27.8909 20.0144 27.8012 19.999 27.7142 19.9854C27.5331 19.9572 27.2794 19.9237 26.9716 19.8864C26.3521 19.8112 25.4729 19.7154 24.4249 19.6065C22.3271 19.3887 19.5324 19.1167 16.7406 18.8511C13.9481 18.5855 11.1559 18.3259 9.06201 18.1328C8.015 18.0362 7.14248 17.9563 6.53168 17.9005C6.22628 17.8725 5.9863 17.8507 5.82266 17.8358C5.74083 17.8283 5.67809 17.8226 5.63579 17.8188C5.61465 17.8168 5.59861 17.8154 5.58785 17.8144C5.58248 17.8139 5.57842 17.8136 5.5757 17.8133C5.57434 17.8132 5.57332 17.8131 5.57264 17.813C5.57229 17.813 5.57204 17.813 5.57186 17.813C5.57169 17.8129 5.5716 17.8129 5.4812 18.8088Z" fill="white" mask="url(#path-3-outside-2_701_19)"/>
</svg>
